# xmcd
#
# Track frame offsets: 
#        150
#        20615
#        37680
#        57572
#        80967
#        106920
#        126522
#        160350
#        183392
#        208485
#        229225
#        251045
#
# Disc length: 3400 seconds
#
# Revision: 0
# Processed by: cddbd v1.5.2PL0 Copyright (c) Steve Scherf et al.
# Submitted via: ExactAudioCopy v0.99pb5
#
DISCID=b10d460c
DTITLE=Forever Einstein - One Thing After Another
DYEAR=1998
DGENRE=Progressive Rock
TTITLE0=Big Sky Mind
TTITLE1=The Girl With The Flame Maple Chest (And Black Walnut Drawers)
TTITLE2=Oh Lord, Please Bless This Rocket House And All Those Who Live
TTITLE2=Inside The Rocket House
TTITLE3=Curly, Get The Ladder!
TTITLE4=Toy Boat Attacked By Toy Pirates On Real Water
TTITLE5=Maniacs From The Fourth Dimension
TTITLE6=Bad Weather (Changed Our Plans)
TTITLE7=On A Bright, Clear Day In January, 1965, We Went Walking Toget
TTITLE7=her
TTITLE8=Stand Back, You Bloated Museum Of Treachery!
TTITLE9=City Of Industry - Garden Of Ruins
TTITLE10=The Pancake Song
TTITLE11=Untitled
EXTD=
EXTT0=
EXTT1=
EXTT2=
EXTT3=
EXTT4=
EXTT5=
EXTT6=
EXTT7=
EXTT8=
EXTT9=
EXTT10=
EXTT11=
PLAYORDER=
